<svg width="358" height="358" xmlns="http://www.w3.org/2000/svg"><path d="M179 0c-2.928 0-5.828.063-8.722.202l6.05 91.576c.712-.017 1.431-.023 2.147-.023 48.709 0 88.198 38.833 88.198 86.729 0 13.586-3.172 26.452-8.835 37.9l81.531 42.186C351.285 234.6 358 207.586 358 179 358 80.14 277.859 0 179 0zm-13.767.516c-.161.012-.32.033-.48.045l.023.27.57-.315c-.037.003-.076-.003-.114 0zM21.416 94.022C7.752 119.305 0 148.243 0 179c0 98.86 80.141 179 179 179 5.014 0 9.976-.202 14.886-.606l-6.119-92.653a90.72 90.72 0 01-9.292.472c-48.709 0-88.199-38.834-88.199-86.729a85.232 85.232 0 0111.507-42.86z" fill="#dedede"/></svg>