<?xml version="1.0" encoding="UTF-8" standalone="no"?>
<svg
   viewBox="0 0 16 16"
   version="1.1"
   id="svg1"
   sodipodi:docname="network-wired-activated.svg"
   width="16"
   height="16"
   inkscape:version="1.3.2 (091e20ef0f, 2023-11-25)"
   xmlns:inkscape="http://www.inkscape.org/namespaces/inkscape"
   xmlns:sodipodi="http://sodipodi.sourceforge.net/DTD/sodipodi-0.dtd"
   xmlns="http://www.w3.org/2000/svg"
   xmlns:svg="http://www.w3.org/2000/svg">
  <sodipodi:namedview
     id="namedview1"
     pagecolor="#ffffff"
     bordercolor="#000000"
     borderopacity="0.25"
     inkscape:showpageshadow="2"
     inkscape:pageopacity="0.0"
     inkscape:pagecheckerboard="0"
     inkscape:deskcolor="#d1d1d1"
     inkscape:zoom="24.316451"
     inkscape:cx="13.221502"
     inkscape:cy="12.255078"
     inkscape:window-width="1920"
     inkscape:window-height="1100"
     inkscape:window-x="0"
     inkscape:window-y="0"
     inkscape:window-maximized="1"
     inkscape:current-layer="svg1" />
  <defs
     id="defs3051">
    <style
       type="text/css"
       id="current-color-scheme">
      .ColorScheme-Text {
        color:#232629;
      }
      </style>
  </defs>
  <path
     style="fill:#ffffff;fill-opacity:1;stroke:none"
     d="m 0,0 v 6 h 2 v 7 c 0,1.662 1.338,3 3,3 h 1 1 2 3 v -1 h -1 -1 v -2 h 1 4 1 V 0 H 15 6 v 1 h 9 V 11 H 4 v 1 1 H 5 6 V 14 14.7266 15 H 5 C 3.892,15 3,14.108 3,13 V 6 H 5 V 0 Z M 1,1 H 4 V 5 H 1 Z M 2,2 V 4 H 3 V 2 Z M 0,7 v 6 H 1 V 7 Z"
     class="ColorScheme-Text"
     id="path1" />
</svg>
