<svg width="48" height="48" fill="none" xmlns="http://www.w3.org/2000/svg"><path d="M12.25 8.5a3.75 3.75 0 00-3.75 3.75v23.5a3.75 3.75 0 003.75 3.75h23.5a3.75 3.75 0 003.75-3.75v-8.5a1.25 1.25 0 012.5 0v8.5A6.25 6.25 0 0135.75 42h-23.5A6.25 6.25 0 016 35.75v-23.5A6.25 6.25 0 0112.25 6h8.5a1.25 1.25 0 010 2.5h-8.5zM27 7.25c0-.69.56-1.25 1.25-1.25h12.5c.69 0 1.25.56 1.25 1.25v12.5a1.25 1.25 0 11-2.5 0v-9.482L29.134 20.634a1.25 1.25 0 01-1.768-1.768L37.732 8.5H28.25c-.69 0-1.25-.56-1.25-1.25z" fill="#eeeeee"/></svg>