<?xml version="1.0" encoding="UTF-8" standalone="no"?>
<!-- Created with Inkscape (http://www.inkscape.org/) -->

<svg
   width="128"
   height="128"
   viewBox="0 0 33.866666 33.866666"
   version="1.1"
   id="svg343"
   inkscape:version="1.2.1 (9c6d41e410, 2022-07-14)"
   sodipodi:docname="reboot.svg"
   xmlns:inkscape="http://www.inkscape.org/namespaces/inkscape"
   xmlns:sodipodi="http://sodipodi.sourceforge.net/DTD/sodipodi-0.dtd"
   xmlns="http://www.w3.org/2000/svg"
   xmlns:svg="http://www.w3.org/2000/svg">
  <sodipodi:namedview
     id="namedview345"
     pagecolor="#ffffff"
     bordercolor="#000000"
     borderopacity="0.25"
     inkscape:showpageshadow="2"
     inkscape:pageopacity="0.0"
     inkscape:pagecheckerboard="0"
     inkscape:deskcolor="#d1d1d1"
     inkscape:document-units="mm"
     showgrid="false"
     inkscape:zoom="0.2102413"
     inkscape:cx="-371.00227"
     inkscape:cy="561.25984"
     inkscape:window-width="1920"
     inkscape:window-height="1100"
     inkscape:window-x="0"
     inkscape:window-y="0"
     inkscape:window-maximized="1"
     inkscape:current-layer="layer1" />
  <defs
     id="defs340" />
  <g
     inkscape:label="图层 1"
     inkscape:groupmode="layer"
     id="layer1">
    <path
       class="ColorScheme-Text"
       fill="currentColor"
       d="m 33.866668,16.935263 c 0,3.12928 -0.90134,6.03968 -2.38123,8.55488 l -7.58475,-7.58474 2.02848,-2.02847 4.58603,4.58612 c 0.144,-0.55147 0.27627,-1.10027 0.35307,-1.67573 0.0213,-0.14827 0.0747,-0.2912 0.0853,-0.44054 0.0533,-0.47466 0.0853,-0.92373 0.0853,-1.41109 0,-7.7933797 -6.31776,-14.1111397 -14.11114,-14.1111397 -0.68587,0 -1.37024,0.0853 -2.02848,0.176 -0.38507,0.0533 -0.77227,0.0853 -1.14656,0.176 -0.80854,0.1888 -1.5455,0.4704 -2.29302,0.7936 -0.0853,0.0427 -0.1792,0.0533 -0.26453,0.0853 -0.2592,0.1152 -0.4608,0.30506 -0.70507,0.44053 -0.0213,0.0107 -0.064,-0.0107 -0.0853,0 l -2.0284797,-2.11669 c 2.5150897,-1.47999997 5.4254897,-2.38122997 8.5548797,-2.38122997 9.352,0 16.93333,7.58132997 16.93333,16.93331967 z m -8.37846,14.55211 c -2.5152,1.48 -5.4256,2.38123 -8.55488,2.38123 -9.3519997,0 -16.9333296666667,-7.58134 -16.9333296666667,-16.93334 0,-3.12937 0.9013299966667,-6.03977 2.3812299666667,-8.5548697 l 2.11669,2.1166997 5.37984,5.46805 -1.94027,1.94026 -4.58613,-4.49791 c -0.144,0.55146 -0.2752,1.10026 -0.35307,1.67562 -0.0213,0.14827 -0.0747,0.2912 -0.0853,0.44054 -0.0533,0.47466 -0.0853,0.92372 -0.0853,1.41108 0,0.48747 0.0427,0.93653 0.0853,1.41109 0.0533,0.47467 0.0853,0.95147 0.176,1.4111 1.31573,6.43018 7.0273097,11.28885 13.8465097,11.28885 0.7008,0 1.3552,-0.0747 2.02848,-0.176 0.384,-0.0533 0.77226,-0.0853 1.14645,-0.176 0.80853,-0.1888 1.5456,-0.4704 2.29312,-0.7936 0.0853,-0.032 0.1792,-0.0533 0.26453,-0.0853 0.25067,-0.1152 0.46507,-0.30614 0.70507,-0.44054 h 0.0853 z"
       id="path1065-7"
       style="color:#232629;fill:#ffffff;fill-opacity:1;stroke-width:2.82222" />
  </g>
</svg>
