<svg width="12" height="12" xmlns="http://www.w3.org/2000/svg"><g class="ColorScheme-Text" fill="#eee"><path d="M2 4.016V8l4 4h1V9.016zM0 4v4h1V4zM6 0L4.01 1.99 7 4.973V0z"/></g><path d="M0 .707L.707 0 12 11.267l-.707.733z" fill="#eee" color="#da4453"/><g fill="#eee"><path d="M8.271 10.393a5 5 0 01-.492.279l.166.998a6 6 0 001.051-.553zM8.129 2.615l-.33.989A3 3 0 019 6a3 3 0 01-.168.71l.822.823A4 4 0 0010 6a4 4 0 00-1.871-3.385z" opacity=".35"/><path d="M7.945.332l-.168 1A5 5 0 0111 6a5 5 0 01-.607 2.271l.73.731A6 6 0 0012 6 6 6 0 007.945.332z" opacity=".35"/></g></svg>