<svg width="15" height="15" xmlns="http://www.w3.org/2000/svg"><path d="M8.093 4.889c-.657 0-1.193-.525-1.193-1.16 0-.634.536-1.152 1.193-1.152.663 0 1.2.518 1.2 1.153 0 .634-.537 1.159-1.2 1.159m-2.146 8.018l-4.186-.805.24-1.159 2.93.58.953-4.678-1.073.41v1.95H3.618v-2.7L6.724 5.23l.472-.055c.424 0 .777.232 1.01.58l.607.92c.48.825 1.433 1.384 2.57 1.384v1.146c-1.314 0-2.514-.566-3.29-1.432L7.74 9.505l1.25 1.152V15H7.795v-3.477L6.54 10.37l-.593 2.537M13.5 15h-1.412V1.364H2.912v8.938L1.5 10.016V0h12v15M2.912 15H1.5v-2.195l1.412.286z" fill="currentColor" color="#eee"/></svg>